<svg xmlns="http://www.w3.org/2000/svg" 
shape-rendering="geometricPrecision" 
text-rendering="geometricPrecision" 
image-rendering="optimizeQuality" 
fill-rule="evenodd" 
clip-rule="evenodd" 
viewBox="0 0 363 511.49">
<path fill-rule="nonzero" d="M46.73 0H303.5c16.34 0 31.21 6.71 41.99 17.48C356.29 28.29 363 43.17 363 59.5v443.53c0 4.67-3.79 8.46-8.46 8.46-2.05 0-3.95-.74-5.41-1.97L181.42 378.99 13.64 509.67c-3.66 2.86-8.97 2.21-11.82-1.45a8.413 8.413 0 01-1.78-5.19L0 46.73c0-12.82 5.25-24.5 13.72-32.98C22.25 5.24 33.92 0 46.73 0zm126.31 129.15c0-4.67 3.79-8.46 8.46-8.46 4.66 0 8.45 3.79 8.45 8.46v37.34h37.34c4.66 0 8.45 3.79 8.45 8.45 0 4.67-3.79 8.46-8.45 8.46h-37.34v37.33c0 4.67-3.79 8.46-8.45 8.46-4.67 0-8.46-3.79-8.46-8.46V183.4h-37.33c-4.66 0-8.45-3.79-8.45-8.46 0-4.66 3.79-8.45 8.45-8.45h37.33v-37.34zm8.46-67.13c31.17 0 59.41 12.64 79.84 33.07 20.43 20.43 33.08 48.68 33.08 79.85 0 31.14-12.64 59.37-33.08 79.81-20.47 20.47-48.7 33.12-79.84 33.12-31.18 0-59.42-12.66-79.85-33.08-20.43-20.44-33.07-48.67-33.07-79.85 0-31.15 12.65-59.39 33.07-79.82 20.46-20.45 48.7-33.1 79.85-33.1zm67.89 45.03c-17.36-17.37-41.38-28.12-67.89-28.12-26.53 0-50.54 10.75-67.91 28.1-17.36 17.37-28.1 41.39-28.1 67.91 0 26.51 10.75 50.53 28.11 67.89 17.37 17.37 41.39 28.13 67.9 28.13 26.53 0 50.55-10.75 67.89-28.1 17.38-17.37 28.12-41.38 28.12-67.92 0-26.51-10.75-50.52-28.12-67.89zm54.11-90.14H46.73c-8.21 0-15.68 3.35-21.06 8.73-5.41 5.42-8.76 12.88-8.76 21.09v439.04l158.84-123.72c2.98-2.71 7.58-2.98 10.87-.42l159.47 124.12V59.5c0-11.7-4.8-22.36-12.51-30.09-7.73-7.71-18.37-12.5-30.08-12.5z"/></svg>